REM DIRINDEX 1\2\5,1\2\6,1\2\7,1\2\8,1\3\9,1\3\10,1\3\11,1\4\12,1\4\13,1\4\14,1\4\15,1\4\16
REM DIRNAME folder01,folder02,folder03,folder04,folder05,folder06,folder07,folder08,folder09,folder10,folder11,folder12,folder13,folder14,folder15,folder16
TITLE ""
FILE "1200_2_sec05_1556_1572.mp3" MP3
  TRACK 01 AUDIO
    TITLE "0:"
    INDEX 01 00:00:00
  TRACK 02 AUDIO
    TITLE "10:cjc034_03230"
    INDEX 01 00:00:15
  TRACK 03 AUDIO
    TITLE "0:"
    INDEX 01 00:01:36
  TRACK 04 AUDIO
    TITLE "9:cjc034_03231"
    INDEX 01 00:01:40
  TRACK 05 AUDIO
    TITLE "0:"
    INDEX 01 00:03:08
  TRACK 06 AUDIO
    TITLE "10:cjc034_03232"
    INDEX 01 00:03:66
  TRACK 07 AUDIO
    TITLE "0:"
    INDEX 01 00:05:12
  TRACK 08 AUDIO
    TITLE "9:cjc034_03233"
    INDEX 01 00:05:14
  TRACK 09 AUDIO
    TITLE "0:"
    INDEX 01 00:06:33
  TRACK 10 AUDIO
    TITLE "10:cjc034_03234"
    INDEX 01 00:07:23
  TRACK 11 AUDIO
    TITLE "0:"
    INDEX 01 00:08:42
  TRACK 12 AUDIO
    TITLE "9:cjc034_03235"
    INDEX 01 00:08:46
  TRACK 13 AUDIO
    TITLE "0:"
    INDEX 01 00:09:71
  TRACK 14 AUDIO
    TITLE "10:cjc034_03236"
    INDEX 01 00:10:57
  TRACK 15 AUDIO
    TITLE "0:"
    INDEX 01 00:11:54
  TRACK 16 AUDIO
    TITLE "9:cjc034_03237"
    INDEX 01 00:11:58
  TRACK 17 AUDIO
    TITLE "0:"
    INDEX 01 00:13:00
  TRACK 18 AUDIO
    TITLE "10:cjc034_03238"
    INDEX 01 00:13:59
  TRACK 19 AUDIO
    TITLE "0:"
    INDEX 01 00:14:66
  TRACK 20 AUDIO
    TITLE "9:cjc034_03239"
    INDEX 01 00:14:70
  TRACK 21 AUDIO
    TITLE "0:"
    INDEX 01 00:16:06
  TRACK 22 AUDIO
    TITLE "10:cjc034_03240"
    INDEX 01 00:16:63
  TRACK 23 AUDIO
    TITLE "0:"
    INDEX 01 00:17:57
  TRACK 24 AUDIO
    TITLE "9:cjc034_03241"
    INDEX 01 00:17:65
  TRACK 25 AUDIO
    TITLE "0:"
    INDEX 01 00:18:72
  TRACK 26 AUDIO
    TITLE "10:cjc034_03242"
    INDEX 01 00:19:54
  TRACK 27 AUDIO
    TITLE "0:"
    INDEX 01 00:20:37
  TRACK 28 AUDIO
    TITLE "9:cjc034_03243"
    INDEX 01 00:20:43
  TRACK 29 AUDIO
    TITLE "0:"
    INDEX 01 00:21:66
  TRACK 30 AUDIO
    TITLE "10:cjc034_03244"
    INDEX 01 00:22:48
  TRACK 31 AUDIO
    TITLE "0:"
    INDEX 01 00:25:27
  TRACK 32 AUDIO
    TITLE "9:cjc034_03245"
    INDEX 01 00:25:33
  TRACK 33 AUDIO
    TITLE "0:"
    INDEX 01 00:26:44
  TRACK 34 AUDIO
    TITLE "10:cjc034_03246"
    INDEX 01 00:27:24
  TRACK 35 AUDIO
    TITLE "0:"
    INDEX 01 00:28:29
  TRACK 36 AUDIO
    TITLE "9:cjc034_03247"
    INDEX 01 00:28:35
  TRACK 37 AUDIO
    TITLE "0:"
    INDEX 01 00:29:48
  TRACK 38 AUDIO
    TITLE "10:cjc034_03248"
    INDEX 01 00:30:34
  TRACK 39 AUDIO
    TITLE "0:"
    INDEX 01 00:31:65
  TRACK 40 AUDIO
    TITLE "9:cjc034_03249"
    INDEX 01 00:31:67
  TRACK 41 AUDIO
    TITLE "0:"
    INDEX 01 00:33:11
  TRACK 42 AUDIO
    TITLE "10:cjc034_03250"
    INDEX 01 00:33:71
  TRACK 43 AUDIO
    TITLE "0:"
    INDEX 01 00:35:02
  TRACK 44 AUDIO
    TITLE "9:cjc034_03251"
    INDEX 01 00:35:08
  TRACK 45 AUDIO
    TITLE "0:"
    INDEX 01 00:36:21
  TRACK 46 AUDIO
    TITLE "11:cjc034_03252"
    INDEX 01 00:37:71
  TRACK 47 AUDIO
    TITLE "0:"
    INDEX 01 00:39:35
  TRACK 48 AUDIO
    TITLE "10:cjc034_03253"
    INDEX 01 00:40:40
  TRACK 49 AUDIO
    TITLE "0:"
    INDEX 01 00:41:32
  TRACK 50 AUDIO
    TITLE "9:cjc034_03254"
    INDEX 01 00:41:38
  TRACK 51 AUDIO
    TITLE "0:"
    INDEX 01 00:42:63
  TRACK 52 AUDIO
    TITLE "10:cjc034_03255"
    INDEX 01 00:43:46
  TRACK 53 AUDIO
    TITLE "0:"
    INDEX 01 00:45:69
  TRACK 54 AUDIO
    TITLE "9:cjc034_03256"
    INDEX 01 00:46:00
  TRACK 55 AUDIO
    TITLE "0:"
    INDEX 01 00:47:17
  TRACK 56 AUDIO
    TITLE "10:cjc034_03257"
    INDEX 01 00:48:06
  TRACK 57 AUDIO
    TITLE "0:"
    INDEX 01 00:50:09
  TRACK 58 AUDIO
    TITLE "9:cjc034_03258"
    INDEX 01 00:50:15
  TRACK 59 AUDIO
    TITLE "0:"
    INDEX 01 00:51:48
  TRACK 60 AUDIO
    TITLE "10:cjc034_03259"
    INDEX 01 00:52:32
  TRACK 61 AUDIO
    TITLE "0:"
    INDEX 01 00:53:45
  TRACK 62 AUDIO
    TITLE "9:cjc034_03260"
    INDEX 01 00:53:53
  TRACK 63 AUDIO
    TITLE "0:"
    INDEX 01 00:54:66
  TRACK 64 AUDIO
    TITLE "10:cjc034_03261"
    INDEX 01 00:55:51
  TRACK 65 AUDIO
    TITLE "0:"
    INDEX 01 00:56:39
  TRACK 66 AUDIO
    TITLE "9:cjc034_03262"
    INDEX 01 00:56:43
  TRACK 67 AUDIO
    TITLE "0:"
    INDEX 01 00:57:58
  TRACK 68 AUDIO
    TITLE "10:cjc034_03263"
    INDEX 01 00:58:36
  TRACK 69 AUDIO
    TITLE "0:"
    INDEX 01 00:59:47
  TRACK 70 AUDIO
    TITLE "9:cjc034_03264"
    INDEX 01 00:59:49
  TRACK 71 AUDIO
    TITLE "0:"
    INDEX 01 01:00:72
